<svg width="25" height="24" viewBox="0 0 25 24" fill="none" xmlns="http://www.w3.org/2000/svg">
<path d="M12.63 21H4.00909C3.46025 21 3.01562 20.5551 3.01562 20.0065V3.99345C3.01562 3.44469 3.46032 3 4.00909 3H20.0222C20.5709 3 21.0156 3.44469 21.0156 3.99345V20.0065C21.0156 20.5552 20.5708 21 20.0222 21H15.4354V14.0294H17.7751L18.1254 11.3128H15.4354V9.57849C15.4354 8.79198 15.6538 8.256 16.7816 8.256L18.2201 8.25537V5.82566C17.9713 5.79255 17.1174 5.71859 16.124 5.71859C14.0499 5.71859 12.63 6.98457 12.63 9.30945V11.3128H10.2843V14.0294H12.63V21Z" fill="#838383"/>
</svg>
