<svg width="21" height="24" viewBox="0 0 21 24" fill="none" xmlns="http://www.w3.org/2000/svg">
<path fill-rule="evenodd" clip-rule="evenodd" d="M0 8.52203C0 5.47719 2.47719 3 5.52203 3H14.478C17.5229 3 20 5.47719 20 8.52203V17.478C20 20.5229 17.5229 23 14.478 23H5.52203C2.47719 23 0 20.5229 0 17.478V8.52203ZM6.02914 13C6.02914 15.1895 7.81048 16.9709 10 16.9709C12.1895 16.9709 13.9709 15.1895 13.9709 13C13.9709 10.8105 12.1895 9.02914 10 9.02914C7.81048 9.02914 6.02914 10.8105 6.02914 13ZM4.74211 13C4.74211 10.1007 7.10074 7.74211 10 7.74211C12.8993 7.74211 15.2579 10.1007 15.2579 13C15.2579 15.8993 12.8993 18.2579 10 18.2579C7.10074 18.2579 4.74211 15.8993 4.74211 13ZM16.4048 5.12093C17.167 5.12093 17.7848 5.73881 17.7848 6.50099C17.7848 7.2632 17.167 7.88107 16.4048 7.88107C15.6426 7.88107 15.0247 7.2632 15.0247 6.50099C15.0247 5.73881 15.6426 5.12093 16.4048 5.12093Z" fill="#838383"/>
</svg>
