<svg width="25" height="24" viewBox="0 0 25 24" fill="none" xmlns="http://www.w3.org/2000/svg">
<path fill-rule="evenodd" clip-rule="evenodd" d="M5.13439 7.77127H5.10899C3.839 7.77127 3.01562 6.94039 3.01562 5.88717C3.01562 4.81347 3.86334 4 5.15873 4C6.45307 4 7.24893 4.81142 7.27433 5.8841C7.27433 6.93731 6.45307 7.77127 5.13439 7.77127ZM21.0156 20H17.0374V14.3754C17.0374 12.9031 16.4151 11.8981 15.0467 11.8981C14 11.8981 13.4179 12.5763 13.147 13.2299C13.0575 13.4365 13.0591 13.7146 13.0608 14.0012V14.0012C13.061 14.0401 13.0613 14.0791 13.0613 14.1182V20H9.12005C9.12005 20 9.17085 10.0365 9.12005 9.13082H13.0613V10.8367C13.2941 10.0908 14.5535 9.02632 16.5632 9.02632C19.0567 9.02632 21.0156 10.5897 21.0156 13.9563V20ZM6.978 9.13082H3.46965V20H6.978V9.13082Z" fill="#838383"/>
</svg>
