<svg width="25" height="24" viewBox="0 0 25 24" fill="none" xmlns="http://www.w3.org/2000/svg">
<path d="M12.0162 3C7.04597 3 3.01562 7.02928 3.01562 12.0005C3.01562 15.6848 5.23189 18.8515 8.40388 20.2433C8.37848 19.6156 8.39964 18.8599 8.55946 18.1762C8.73304 17.4459 9.71734 13.2727 9.71734 13.2727C9.71734 13.2727 9.43051 12.698 9.43051 11.8481C9.43051 10.5146 10.2042 9.51861 11.1663 9.51861C11.9844 9.51861 12.3802 10.1335 12.3802 10.8702C12.3802 11.6925 11.8553 12.9234 11.5854 14.0633C11.36 15.0191 12.0638 15.797 13.0057 15.797C14.7108 15.797 15.8592 13.6072 15.8592 11.012C15.8592 9.04022 14.5309 7.56377 12.1146 7.56377C9.385 7.56377 7.68417 9.59905 7.68417 11.8725C7.68417 12.6578 7.9149 13.2103 8.27687 13.6379C8.4441 13.8358 8.46632 13.9141 8.40599 14.1406C8.36366 14.3046 8.26417 14.7047 8.22289 14.8624C8.16256 15.09 7.9784 15.1725 7.77308 15.0878C6.51465 14.5745 5.92937 13.1976 5.92937 11.6491C5.92937 9.09314 8.0853 6.02593 12.3612 6.02593C15.7978 6.02593 18.0595 8.5142 18.0595 11.1824C18.0595 14.7132 16.0973 17.3507 13.2026 17.3507C12.2321 17.3507 11.3176 16.8257 11.0043 16.2298C11.0043 16.2298 10.4815 18.3032 10.3714 18.7033C10.1809 19.3965 9.8073 20.0908 9.46544 20.6306C10.2751 20.8698 11.1303 21 12.0162 21C16.9863 21 21.0156 16.9707 21.0156 12.0005C21.0156 7.02928 16.9863 3 12.0162 3Z" fill="#838383"/>
</svg>
