<svg width="25" height="24" viewBox="0 0 25 24" fill="none" xmlns="http://www.w3.org/2000/svg">
<path d="M12.3293 9.16374L17.1653 3.16857C17.234 3.06702 17.3496 3 17.48 3H19.6346C19.7202 3.00203 19.8059 3.03046 19.8766 3.09038C20.039 3.22645 20.0629 3.47221 19.9284 3.63772L13.7797 11.2597L19.4064 19.3855C19.5279 19.5612 19.4861 19.8039 19.3138 19.9278C19.2471 19.9755 19.1704 19.9989 19.0947 19.9989L16.1663 19.9999C16.0288 19.9999 15.9083 19.9257 15.8406 19.8151L11.702 13.837L6.86597 19.8314C6.79724 19.933 6.68169 20 6.5512 20H4.39669C4.31102 19.998 4.22536 19.9695 4.15464 19.9096C3.99228 19.7736 3.96837 19.5278 4.10284 19.3623L10.2516 11.7413L4.62482 3.61448C4.5033 3.4388 4.54514 3.1961 4.71746 3.07223C4.7842 3.0245 4.86089 3.00115 4.9366 3.00115H7.86497C8.00243 3.00115 8.12296 3.07528 8.19068 3.18596L12.3303 9.16502L12.3293 9.16374Z" fill="#838383"/>
</svg>
