<svg width="36" height="36" viewBox="0 0 36 36" fill="none" xmlns="http://www.w3.org/2000/svg">
<circle cx="17.7186" cy="17.7127" r="17.3514" fill="#007048" fill-opacity="0.5"/>
<circle cx="17.7151" cy="17.7132" r="15.0979" fill="#007048"/>
<path d="M25.0445 16.5698C24.9057 15.7601 24.644 14.9952 24.2845 14.2955C23.0605 11.9044 20.6736 10.2773 17.9363 10.2773C15.199 10.2773 12.8639 11.8714 11.6266 14.2192C11.2478 14.9401 10.9719 15.7312 10.8281 16.5713H11.701C12.313 13.6556 14.8747 11.4643 17.9356 11.4643C18.7123 11.4643 19.4555 11.6073 20.1444 11.8654C21.7196 12.4568 22.9996 13.6633 23.7076 15.1906C23.9108 15.628 24.0696 16.0891 24.1725 16.5723H25.0453L25.0445 16.5698Z" fill="white"/>
<path d="M23.0471 23.9735H20.9235C20.8207 23.5623 20.4545 23.2568 20.0206 23.2568H18.2715C17.7556 23.2568 17.3359 23.6816 17.3359 24.2036C17.3359 24.7257 17.7556 25.1504 18.2715 25.1504H20.0206C20.457 25.1504 20.8207 24.8424 20.9235 24.4337H23.0471C23.9376 24.4337 24.6608 23.7019 24.6608 22.8008H24.2051C24.2051 23.4464 23.6867 23.9726 23.0471 23.9726V23.9735Z" fill="white"/>
<path d="M12.2894 22.1069C12.3304 22.0553 12.358 21.9943 12.358 21.9224V17.3325C12.358 17.291 12.3496 17.2504 12.3345 17.2157C12.2894 17.1074 12.1824 17.0312 12.0603 17.0312H11.6406V22.2253H12.062C12.1565 22.2253 12.2376 22.1779 12.2911 22.1085L12.2894 22.1069Z" fill="white"/>
<path d="M9.375 18.3975V20.8563C9.375 21.6119 9.98031 22.2253 10.7278 22.2253H11.1859V17.0312H10.7278C10.6358 17.0312 10.5438 17.0397 10.456 17.0592C9.87999 17.1785 9.43938 17.6675 9.38337 18.2699C9.37919 18.3131 9.37668 18.3545 9.37668 18.3977L9.375 18.3975Z" fill="white"/>
<path d="M25.4475 17.0665C25.3488 17.0445 25.2485 17.0293 25.1457 17.0293H24.6875V22.2234H25.1457C25.8906 22.2234 26.4984 21.6108 26.4984 20.8544V18.3955C26.4984 18.3524 26.4959 18.3092 26.4917 18.2652C26.4357 17.6738 26.0076 17.1933 25.4491 17.0629L25.4475 17.0665Z" fill="white"/>
<path d="M23.808 17.0318C23.808 17.0318 23.7971 17.0344 23.7929 17.0344C23.6734 17.0411 23.5705 17.119 23.5296 17.2273C23.517 17.2594 23.5078 17.2966 23.5078 17.333V21.923C23.5078 21.9924 23.5354 22.0533 23.5739 22.1024C23.6299 22.1734 23.711 22.2234 23.8071 22.2234H24.2285V17.0293H23.8088L23.808 17.0318Z" fill="white"/>
</svg>
