<svg width="66" height="66" viewBox="0 0 66 66" fill="none" xmlns="http://www.w3.org/2000/svg">
<circle cx="33.0739" cy="33.0739" r="32.777" fill="#007048" fill-opacity="0.5"/>
<circle cx="33.075" cy="33.075" r="28.5203" fill="#007048"/>
<path d="M46.9253 30.9138C46.6631 29.3843 46.1688 27.9395 45.4897 26.6177C43.1775 22.101 38.6685 19.0273 33.4978 19.0273C28.327 19.0273 23.9159 22.0385 21.5786 26.4736C20.8632 27.8354 20.342 29.3298 20.0703 30.9167H21.7191C22.8752 25.409 27.7143 21.2695 33.4964 21.2695C34.9636 21.2695 36.3676 21.5397 37.6689 22.0271C40.6444 23.1444 43.0624 25.4235 44.3999 28.3086C44.7837 29.1349 45.0837 30.0059 45.278 30.9186H46.9268L46.9253 30.9138Z" fill="white"/>
<path d="M43.1479 44.8988H39.1364C38.9421 44.1221 38.2504 43.5451 37.4307 43.5451H34.1267C33.1522 43.5451 32.3594 44.3474 32.3594 45.3336C32.3594 46.3197 33.1522 47.122 34.1267 47.122H37.4307C38.2551 47.122 38.9421 46.5403 39.1364 45.7683H43.1479C44.83 45.7683 46.1961 44.3858 46.1961 42.6836H45.3354C45.3354 43.9031 44.3562 44.8972 43.1479 44.8972V44.8988Z" fill="white"/>
<path d="M22.8271 41.375C22.9045 41.2775 22.9566 41.1625 22.9566 41.0266V32.3561C22.9566 32.2778 22.9408 32.2011 22.9124 32.1355C22.8271 31.931 22.6249 31.7871 22.3944 31.7871H21.6016V41.5988H22.3976C22.576 41.5988 22.7292 41.5093 22.8303 41.3782L22.8271 41.375Z" fill="white"/>
<path d="M17.3203 34.366V39.0108C17.3203 40.4381 18.4638 41.5968 19.8757 41.5968H20.7412V31.7852H19.8757C19.702 31.7852 19.5282 31.8011 19.3624 31.8379C18.2742 32.0633 17.4419 32.9871 17.3361 34.125C17.3282 34.2065 17.3235 34.2849 17.3235 34.3664L17.3203 34.366Z" fill="white"/>
<path d="M47.6856 31.8516C47.4993 31.81 47.3097 31.7812 47.1155 31.7812H46.25V41.5929H47.1155C48.5227 41.5929 49.6709 40.4358 49.6709 39.0069V34.3621C49.6709 34.2806 49.6661 34.1991 49.6582 34.116C49.5524 32.9988 48.7438 32.091 47.6888 31.8448L47.6856 31.8516Z" fill="white"/>
<path d="M44.5904 31.786C44.5904 31.786 44.5699 31.7908 44.562 31.7908C44.3362 31.8036 44.1419 31.9506 44.0645 32.1552C44.0408 32.216 44.0234 32.2863 44.0234 32.355V41.0255C44.0234 41.1566 44.0756 41.2717 44.1482 41.3644C44.254 41.4986 44.4072 41.5929 44.5888 41.5929H45.3848V31.7812H44.592L44.5904 31.786Z" fill="white"/>
</svg>
