<svg width="64" height="44" viewBox="0 0 64 44" fill="none" xmlns="http://www.w3.org/2000/svg">
<g clip-path="url(#clip0_316_9627)">
<path d="M60.6981 35.1212H57.6069V4.87899C57.6018 2.18968 55.423 0.0083829 52.7311 0.00585938H10.7383C8.04643 0.00838743 5.86772 2.18968 5.86261 4.87899V35.1212H2.71072C1.33067 35.1238 0.210938 36.241 0.210938 37.621V39.2741C0.210938 41.5034 1.9853 43.9981 4.36124 43.9981L59.0481 44.0006C61.424 44.0006 63.1984 41.5059 63.1984 39.2766V37.621C63.1984 36.241 62.0781 35.1238 60.6981 35.1212ZM7.64959 4.87899C7.64959 4.06007 7.97565 3.27396 8.55444 2.69264C9.13325 2.11383 9.91934 1.7878 10.7408 1.7878H52.7336C53.5525 1.7878 54.3386 2.11386 54.92 2.69264C55.4988 3.27399 55.8248 4.06007 55.8248 4.87899V35.1212H7.64933L7.64959 4.87899ZM61.4137 39.2715C61.4137 40.5934 60.3218 42.2111 59.0479 42.2111H4.36111C3.08718 42.2111 1.99533 40.5959 1.99533 39.2715V37.6184C1.99533 37.2216 2.31633 36.9006 2.71318 36.9006H60.6981C60.8876 36.9006 61.0721 36.9764 61.2061 37.1104C61.3401 37.2443 61.4159 37.4288 61.4159 37.6184L61.4137 39.2715ZM34.5886 39.5596C34.5886 40.0525 34.1892 40.4518 33.6964 40.4518H29.7129C29.2201 40.4518 28.8207 40.0525 28.8207 39.5596C28.8207 39.0667 29.2201 38.6674 29.7129 38.6674H33.6964C34.1892 38.6674 34.5886 39.0667 34.5886 39.5596ZM6.33283 39.5318V39.5874C6.32019 40.0702 5.92336 40.4543 5.4406 40.4543C4.95783 40.4543 4.56098 40.0701 4.54837 39.5874V39.5318C4.561 39.049 4.95783 38.6649 5.4406 38.6649C5.92336 38.6649 6.32021 39.0491 6.33283 39.5318ZM10.5109 39.5318V39.5874C10.4957 40.0702 10.1014 40.4543 9.61866 40.4543C9.13589 40.4543 8.73904 40.0701 8.72643 39.5874V39.5318C8.73906 39.049 9.13589 38.6649 9.61866 38.6649C10.1014 38.6649 10.4957 39.0491 10.5109 39.5318ZM14.6889 39.5318V39.5874C14.6738 40.0702 14.2795 40.4543 13.7967 40.4543C13.3114 40.4543 12.9171 40.0701 12.902 39.5874V39.5318C12.9171 39.049 13.3114 38.6649 13.7967 38.6649C14.2795 38.6649 14.6738 39.0491 14.6889 39.5318ZM51.4121 7.18921C51.4121 7.17405 51.4121 7.15888 51.4071 7.14371L51.4096 7.14624C51.4045 7.11338 51.3995 7.08305 51.3944 7.05272C51.3944 7.04514 51.3944 7.03756 51.3919 7.02997C51.3894 7.02239 51.3818 7.00217 51.3767 6.98701C51.3717 6.97184 51.3692 6.9592 51.3641 6.94656H51.3616C51.2453 6.63062 50.9622 6.40314 50.6286 6.36522L47.9696 6.0518H47.967C47.4792 5.99366 47.0344 6.345 46.9788 6.83532C46.9206 7.32315 47.272 7.76799 47.7598 7.82357L48.1086 7.86402L44.4108 10.4776C43.4452 9.27693 41.9009 8.69814 40.3843 8.97113C38.8652 9.24411 37.6192 10.3234 37.1339 11.7869L33.5826 10.0201L33.5801 10.0176C33.5978 9.87095 33.6054 9.72183 33.6054 9.5727C33.6054 8.30136 33.0341 7.09822 32.0458 6.29696C31.0601 5.49571 29.7635 5.18228 28.5199 5.44518C27.2763 5.70808 26.2173 6.51683 25.6385 7.64919C25.0571 8.77902 25.0217 10.1136 25.5348 11.2763L20.2876 15.103V15.1005C18.8241 13.5284 16.4103 13.3085 14.6865 14.595C12.9652 15.8816 12.4901 18.2575 13.5845 20.1076C14.6789 21.9578 16.9916 22.6858 18.948 21.7961C20.9043 20.9064 21.8749 18.6846 21.2001 16.6449L26.5864 12.717C27.5241 13.5562 28.7879 13.9303 30.0314 13.7382C31.275 13.5461 32.3669 12.8105 33.0089 11.7287L36.952 13.6901C37.1112 14.8376 37.733 15.8689 38.6733 16.5438C39.6161 17.2186 40.7914 17.4764 41.9288 17.2566C43.0662 17.0367 44.0621 16.3568 44.6838 15.3811C45.3056 14.403 45.4977 13.215 45.2171 12.0902L49.0287 9.40093L48.9453 9.70677L48.9428 9.7093C48.8164 10.1845 49.0995 10.6748 49.5747 10.8012C50.0524 10.9301 50.5427 10.647 50.6691 10.1693L51.3869 7.48254C51.3869 7.4699 51.392 7.45473 51.3945 7.4421L51.3996 7.41935H51.4021C51.4097 7.38143 51.4147 7.341 51.4173 7.30308V7.28033C51.4173 7.25 51.4172 7.21954 51.4121 7.18921ZM17.1963 20.3931C16.2131 20.3931 15.3284 19.7991 14.9518 18.8917C14.5752 17.9844 14.7824 16.9379 15.4775 16.2428C16.1726 15.5477 17.219 15.3405 18.1264 15.7171C19.0363 16.0937 19.6278 16.9808 19.6278 17.9641C19.6253 19.3037 18.5384 20.3906 17.1963 20.3931ZM29.3869 11.9988C28.4037 11.9988 27.519 11.4073 27.1424 10.5C26.7658 9.59258 26.973 8.54616 27.6681 7.85102C28.3632 7.15595 29.4096 6.9487 30.317 7.32529C31.2244 7.70189 31.8159 8.58653 31.8159 9.5698C31.8159 10.9119 30.729 11.9988 29.3869 11.9988ZM41.1278 15.5475C40.1446 15.5475 39.2574 14.9536 38.8807 14.0462C38.5066 13.1388 38.7139 12.0924 39.409 11.3972C40.1041 10.7021 41.148 10.4949 42.0579 10.8715C42.9653 11.2481 43.5568 12.1327 43.5568 13.116C43.5542 14.4581 42.4674 15.545 41.1278 15.5475ZM20.0453 27.7809C19.8052 27.7885 19.5726 27.6975 19.3982 27.5281C19.2264 27.3613 19.1278 27.1288 19.1278 26.8887C19.1278 26.646 19.2264 26.416 19.3982 26.2467C19.5726 26.0798 19.8052 25.9888 20.0453 25.9964H45.1641C45.6469 26.0091 46.0336 26.4059 46.0336 26.8887C46.0336 27.3714 45.6469 27.7683 45.1641 27.7809L20.0453 27.7809ZM51.0336 31.734C51.0336 32.2269 50.6342 32.6263 50.1414 32.6263H15.074C14.8339 32.6338 14.5988 32.5429 14.427 32.376C14.2525 32.2067 14.1565 31.9767 14.1565 31.734C14.1565 31.4939 14.2525 31.2614 14.427 31.0945C14.5988 30.9252 14.8339 30.8342 15.074 30.8418H50.1388C50.6291 30.8418 51.031 31.2411 51.031 31.734L51.0336 31.734Z" fill="#838383"/>
</g>
<defs>
<clipPath id="clip0_316_9627">
<rect width="63.4118" height="44" fill="white"/>
</clipPath>
</defs>
</svg>
