<svg width="25" height="24" viewBox="0 0 25 24" fill="none" xmlns="http://www.w3.org/2000/svg">
<path d="M1.44161 10.977L20.9054 4.02118C21.1977 3.91634 21.4767 4.21767 21.3958 4.55038L17.9904 18.565C17.9302 18.8125 17.6937 18.948 17.4804 18.8571L10.604 15.9316C10.3336 15.8164 10.2667 15.4202 10.481 15.202L15.8753 9.70393C16.2069 9.36623 15.849 8.77 15.4464 8.99038L6.41621 13.9307C6.31731 13.9849 6.20286 13.9888 6.1011 13.9421L1.41277 11.7947C1.07768 11.641 1.0967 11.1 1.44161 10.977ZM12.261 12.162C12.4303 11.9965 12.2423 11.6984 12.0474 11.8232L7.74419 14.4667C7.35616 14.7152 7.17388 15.2337 7.30576 15.7137L8.635 20.7478C8.70253 21.0027 8.98721 21.0851 9.15554 20.8983L11.8086 18.0733C11.9171 17.9528 11.8825 17.747 11.7424 17.68L8.98943 16.1366C8.83821 16.0517 8.80841 15.8239 8.9311 15.6937L12.261 12.162Z" fill="#838383"/>
</svg>
