<svg width="24" height="23" viewBox="0 0 24 23" fill="none" xmlns="http://www.w3.org/2000/svg">
<g clip-path="url(#clip0_265_2568)">
<path d="M10.2507 3C4.87562 3 0.5 7.37562 0.5 12.7507C0.5 14.5993 1.0241 16.4031 2.01136 17.9633C2.07636 18.0648 2.09261 18.1948 2.05605 18.3086L0.715328 22.3226L5.09908 21.1688C5.13158 21.1607 5.16814 21.1566 5.20471 21.1566C5.27378 21.1566 5.34284 21.1769 5.40379 21.2094C6.87451 22.0545 8.55245 22.5014 10.2507 22.5014C15.6258 22.5014 20.0014 18.1258 20.0014 12.7507C20.0014 7.37562 15.6258 3 10.2507 3ZM16.4627 18.7758C16.4261 18.8327 16.3774 18.8774 16.3205 18.9099C15.9223 19.1415 15.4389 19.2552 14.8904 19.2552C13.9722 19.2552 12.8671 18.9343 11.6483 18.3005C10.3076 17.6057 8.93435 16.5738 7.67895 15.3224C6.42761 14.067 5.39566 12.6938 4.70092 11.3531C3.69335 9.41108 3.47396 7.75346 4.09151 6.68089C4.12401 6.62401 4.1687 6.57525 4.22558 6.53869C4.60748 6.29898 6.30979 6.12022 6.86233 6.38024C6.97202 6.43712 7.05734 6.53869 7.08172 6.65651C7.26861 7.465 7.66676 8.38726 8.24367 9.32576C8.30462 9.42733 8.32087 9.54921 8.2843 9.66297C8.17867 9.99206 7.6952 10.6055 7.32955 10.9753C7.91459 11.8528 8.64183 12.7385 9.45439 13.547C10.2629 14.3596 11.1486 15.0868 12.0261 15.6718C12.3958 15.3062 13.0093 14.8227 13.3384 14.7171C13.4522 14.6805 13.5741 14.6968 13.6756 14.7577C14.6141 15.3346 15.5364 15.7328 16.3449 15.9197C16.4627 15.944 16.5643 16.0294 16.6211 16.1391C16.8812 16.6916 16.7024 18.3939 16.4627 18.7758Z" fill="#838383"/>
</g>
<defs>
<clipPath id="clip0_265_2568">
<rect width="19.5014" height="19.5014" fill="white" transform="translate(0.5 3)"/>
</clipPath>
</defs>
</svg>
